<svg xmlns="http://www.w3.org/2000/svg" version="1.1" xmlns:xlink="http://www.w3.org/1999/xlink" width="200" height="200"><svg xmlns="http://www.w3.org/2000/svg" version="1.1" xmlns:xlink="http://www.w3.org/1999/xlink" width="200" height="200"><svg xmlns="http://www.w3.org/2000/svg" version="1.1" xmlns:xlink="http://www.w3.org/1999/xlink" viewBox="0 0 200 200"><rect width="200" height="200" fill="url('#gradient')"></rect><defs><linearGradient id="gradient" gradientTransform="rotate(0 0.5 0.5)"><stop offset="0%" stop-color="#1b3855"></stop><stop offset="100%" stop-color="#d9e241"></stop></linearGradient></defs><g><g fill="hsla(0,0%,10%,1)" transform="matrix(1.0985189336322152,0,0,1.0985189336322152,32.8711097382247,105.89476489993267)" stroke="hsla(0,0%,75%,1)" stroke-width="0"><path d="M1.46-13.19L4.76-13.19L4.76-10.57L6.49-10.57L6.49-8.28L4.76-8.28L4.76-3.45Q4.76-2.85 4.97-2.62Q5.19-2.38 5.82-2.38L5.82-2.38Q6.31-2.38 6.64-2.44L6.64-2.44L6.64-0.09Q5.75 0.20 4.79 0.20L4.79 0.20Q3.09 0.20 2.28-0.61Q1.46-1.41 1.46-3.04L1.46-3.04L1.46-8.28L0.12-8.28L0.12-10.57L1.46-10.57L1.46-13.19ZM11.01-15L11.01-9.43Q12.06-10.76 13.70-10.76L13.70-10.76Q15.45-10.76 16.34-9.73Q17.23-8.69 17.25-6.67L17.25-6.67L17.25 0L13.95 0L13.95-6.59Q13.95-7.43 13.60-7.83Q13.26-8.22 12.44-8.22L12.44-8.22Q11.43-8.22 11.01-7.58L11.01-7.58L11.01 0L7.71 0L7.71-15L11.01-15ZM24.19 0.20L24.19 0.20Q21.76 0.20 20.25-1.25Q18.75-2.71 18.75-5.03L18.75-5.03L18.75-5.30Q18.75-6.92 19.35-8.16Q19.95-9.40 21.10-10.08Q22.26-10.76 23.84-10.76L23.84-10.76Q26.06-10.76 27.35-9.38Q28.64-8.00 28.64-5.53L28.64-5.53L28.64-4.25L22.10-4.25Q22.28-3.36 22.87-2.85Q23.47-2.34 24.41-2.34L24.41-2.34Q25.98-2.34 26.86-3.44L26.86-3.44L28.36-1.66Q27.74-0.81 26.62-0.31Q25.49 0.20 24.19 0.20ZM23.82-8.22L23.82-8.22Q22.37-8.22 22.10-6.31L22.10-6.31L25.42-6.31L25.42-6.56Q25.44-7.35 25.02-7.79Q24.60-8.22 23.82-8.22ZM37.45-3.78L37.45-3.78Q37.45-4.53 36.92-4.95Q36.39-5.37 35.05-5.82Q33.71-6.27 32.86-6.69L32.86-6.69Q30.10-8.05 30.10-10.42L30.10-10.42Q30.10-11.60 30.79-12.50Q31.47-13.41 32.73-13.91Q33.99-14.41 35.57-14.41L35.57-14.41Q37.10-14.41 38.32-13.87Q39.53-13.32 40.21-12.31Q40.88-11.30 40.88-10L40.88-10L37.46-10Q37.46-10.87 36.93-11.35Q36.40-11.83 35.49-11.83L35.49-11.83Q34.57-11.83 34.04-11.42Q33.51-11.02 33.51-10.39L33.51-10.39Q33.51-9.84 34.09-9.40Q34.68-8.96 36.15-8.48Q37.63-8.01 38.57-7.46L38.57-7.46Q40.88-6.13 40.88-3.80L40.88-3.80Q40.88-1.93 39.47-0.87Q38.07 0.20 35.62 0.20L35.62 0.20Q33.89 0.20 32.49-0.42Q31.08-1.04 30.38-2.12Q29.67-3.20 29.67-4.61L29.67-4.61L33.11-4.61Q33.11-3.47 33.70-2.92Q34.29-2.38 35.62-2.38L35.62-2.38Q36.46-2.38 36.96-2.75Q37.45-3.12 37.45-3.78ZM45.96-10.57L45.96 0L42.66 0L42.66-10.57L45.96-10.57ZM42.46-13.29L42.46-13.29Q42.46-13.99 42.97-14.44Q43.48-14.89 44.29-14.89Q45.10-14.89 45.61-14.44Q46.11-13.99 46.11-13.29Q46.11-12.59 45.61-12.14Q45.10-11.69 44.29-11.69Q43.48-11.69 42.97-12.14Q42.46-12.59 42.46-13.29ZM53.52-2.97L53.52-2.97Q53.52-3.39 53.08-3.64Q52.64-3.90 51.41-4.17Q50.18-4.44 49.38-4.89Q48.57-5.33 48.15-5.97Q47.73-6.60 47.73-7.42L47.73-7.42Q47.73-8.88 48.94-9.82Q50.14-10.76 52.08-10.76L52.08-10.76Q54.17-10.76 55.44-9.81Q56.71-8.87 56.71-7.32L56.71-7.32L53.41-7.32Q53.41-8.59 52.07-8.59L52.07-8.59Q51.55-8.59 51.20-8.31Q50.85-8.02 50.85-7.59L50.85-7.59Q50.85-7.15 51.28-6.88Q51.71-6.60 52.65-6.43Q53.59-6.25 54.31-6.01L54.31-6.01Q56.69-5.19 56.69-3.07L56.69-3.07Q56.69-1.62 55.41-0.71Q54.12 0.20 52.08 0.20L52.08 0.20Q50.72 0.20 49.66-0.29Q48.59-0.78 48.00-1.62Q47.40-2.46 47.40-3.39L47.40-3.39L50.48-3.39Q50.50-2.66 50.97-2.32Q51.44-1.98 52.17-1.98L52.17-1.98Q52.84-1.98 53.18-2.26Q53.52-2.53 53.52-2.97ZM60.78-10.57L62.45-4.61L64.21-10.57L67.73-10.57L63.43 1.77L63.24 2.22Q62.32 4.27 60 4.27L60 4.27Q59.36 4.27 58.64 4.07L58.64 4.07L58.64 1.72L59.07 1.72Q59.77 1.72 60.13 1.52Q60.50 1.32 60.67 0.80L60.67 0.80L60.94 0.10L57.27-10.57L60.78-10.57ZM78.40-5.36L78.40-5.21Q78.40-2.74 77.29-1.27Q76.18 0.20 74.30 0.20L74.30 0.20Q72.84 0.20 71.90-0.87L71.90-0.87L71.90 4.06L68.61 4.06L68.61-10.57L71.69-10.57L71.79-9.59Q72.73-10.76 74.28-10.76L74.28-10.76Q76.23-10.76 77.31-9.32Q78.40-7.88 78.40-5.36L78.40-5.36ZM75.11-5.06L75.11-5.41Q75.11-8.22 73.47-8.22L73.47-8.22Q72.29-8.22 71.90-7.38L71.90-7.38L71.90-3.22Q72.33-2.34 73.49-2.34L73.49-2.34Q75.06-2.34 75.11-5.06L75.11-5.06ZM83.07-15L83.07-9.43Q84.12-10.76 85.76-10.76L85.76-10.76Q87.51-10.76 88.40-9.73Q89.29-8.69 89.31-6.67L89.31-6.67L89.31 0L86.01 0L86.01-6.59Q86.01-7.43 85.66-7.83Q85.32-8.22 84.50-8.22L84.50-8.22Q83.49-8.22 83.07-7.58L83.07-7.58L83.07 0L79.78 0L79.78-15L83.07-15ZM96.25 0.20L96.25 0.20Q93.82 0.20 92.31-1.25Q90.81-2.71 90.81-5.03L90.81-5.03L90.81-5.30Q90.81-6.92 91.41-8.16Q92.01-9.40 93.16-10.08Q94.32-10.76 95.90-10.76L95.90-10.76Q98.13-10.76 99.41-9.38Q100.70-8.00 100.70-5.53L100.70-5.53L100.70-4.25L94.16-4.25Q94.34-3.36 94.93-2.85Q95.53-2.34 96.47-2.34L96.47-2.34Q98.04-2.34 98.92-3.44L98.92-3.44L100.42-1.66Q99.80-0.81 98.68-0.31Q97.55 0.20 96.25 0.20ZM95.88-8.22L95.88-8.22Q94.43-8.22 94.16-6.31L94.16-6.31L97.48-6.31L97.48-6.56Q97.50-7.35 97.08-7.79Q96.66-8.22 95.88-8.22ZM111.27 0L107.98 0Q107.80-0.32 107.67-0.95L107.67-0.95Q106.76 0.20 105.13 0.20L105.13 0.20Q103.63 0.20 102.59-0.71Q101.54-1.61 101.54-2.98L101.54-2.98Q101.54-4.70 102.81-5.58Q104.08-6.46 106.50-6.46L106.50-6.46L107.52-6.46L107.52-7.01Q107.52-8.47 106.26-8.47L106.26-8.47Q105.09-8.47 105.09-7.31L105.09-7.31L101.80-7.31Q101.80-8.85 103.10-9.80Q104.40-10.76 106.43-10.76Q108.45-10.76 109.62-9.78Q110.79-8.79 110.82-7.07L110.82-7.07L110.82-2.39Q110.84-0.94 111.27-0.17L111.27-0.17L111.27 0ZM105.92-2.15L105.92-2.15Q106.53-2.15 106.94-2.41Q107.34-2.68 107.52-3.01L107.52-3.01L107.52-4.70L106.56-4.70Q104.84-4.70 104.84-3.15L104.84-3.15Q104.84-2.71 105.15-2.43Q105.45-2.15 105.92-2.15ZM112.58-10.57L115.66-10.57L115.77-9.33Q116.87-10.76 118.79-10.76L118.79-10.76Q120.44-10.76 121.25-9.78Q122.07-8.79 122.10-6.81L122.10-6.81L122.10 0L118.80 0L118.80-6.67Q118.80-7.47 118.48-7.85Q118.15-8.22 117.30-8.22L117.30-8.22Q116.34-8.22 115.87-7.46L115.87-7.46L115.87 0L112.58 0L112.58-10.57Z"></path></g></g></svg></svg><style>@media (prefers-color-scheme: light) { :root { filter: none; } }
@media (prefers-color-scheme: dark) { :root { filter: none; } }
</style></svg>